<?xml version="1.0"?>
<svg xmlns="http://www.w3.org/2000/svg" xmlns:xlink="http://www.w3.org/1999/xlink" version="1.1" id="Capa_1" x="0px" y="0px" viewBox="0 0 512 512" style="enable-background:new 0 0 512 512;" xml:space="preserve" width="512px" height="512px" class=""><g><path style="fill:#FDBF00" d="M225.995,300c-3.058,0-6.13-0.931-8.766-2.832c-5.969-4.301-7.936-12.296-4.646-18.876l23.291-46.584  l-46.583-23.292c-4.313-2.156-7.326-6.254-8.099-11.014s0.791-9.6,4.2-13.009l90-90c5.201-5.202,13.409-5.865,19.377-1.562  c5.969,4.301,7.936,12.296,4.646,18.876l-23.291,46.584l46.583,23.292c4.313,2.156,7.326,6.254,8.099,11.014s-0.791,9.6-4.2,13.009  l-90,90C233.702,298.511,229.86,300,225.995,300z" data-original="#FDBF00" class="" data-old_color="#FDBF00"/><path style="fill:#FF9F00" d="M256,276.213l70.606-70.606c3.409-3.409,4.973-8.25,4.2-13.009s-3.786-8.857-8.099-11.014  l-46.583-23.292l23.291-46.584c3.29-6.58,1.323-14.575-4.646-18.876c-5.968-4.303-14.176-3.64-19.377,1.562L256,113.787V276.213z" data-original="#FF9F00" class="" data-old_color="#FF9F00"/><path style="fill:#27D301" d="M256,0C148.477,0,61,87.477,61,195c0,42.419,13.441,82.779,38.868,116.716l144.085,194.221  C246.782,509.751,251.251,512,256,512s9.218-2.249,12.047-6.063L412.11,311.745C437.552,277.802,451,237.432,451,195  C451,87.477,363.523,0,256,0z M256,330c-74.439,0-135-60.561-135-135S181.561,60,256,60s135,60.561,135,135S330.439,330,256,330z" data-original="#3AAAFF" class="active-path" data-old_color="#3AAAFF"/><path style="fill:#59C101" d="M391,195c0,74.439-60.561,135-135,135v182c4.749,0,9.218-2.249,12.047-6.063L412.11,311.745  C437.552,277.802,451,237.432,451,195C451,87.477,363.523,0,256,0v60C330.439,60,391,120.561,391,195z" data-original="#008ADF" class="" data-old_color="#008ADF"/></g> </svg>
